<?xml version="1.0" encoding="UTF-8" standalone="no"?><!DOCTYPE svg PUBLIC "-//W3C//DTD SVG 1.1//EN" "http://www.w3.org/Graphics/SVG/1.1/DTD/svg11.dtd"><svg width="100%" height="100%" viewBox="0 0 512 512" version="1.1" xmlns="http://www.w3.org/2000/svg" xmlns:xlink="http://www.w3.org/1999/xlink" xml:space="preserve" xmlns:serif="http://www.serif.com/" style="fill-rule:evenodd;clip-rule:evenodd;stroke-linejoin:round;stroke-miterlimit:2;"><g><path d="M124.915,365.663l0,-311.711c50.7,15.421 101.399,31.037 152.482,46.651c-50.505,88.867 -100.048,177.734 -151.518,265.445c-0.385,0 -0.771,-0.193 -0.964,-0.385Z" style="fill:#121e3e;fill-rule:nonzero;"/><path d="M133.398,366.626c0.385,-0.578 0.771,-1.156 1.157,-1.735c31.614,-44.145 63.228,-88.288 94.843,-132.241c13.301,-18.505 26.795,-37.204 40.096,-55.71c0.964,-1.349 1.927,-1.735 3.662,-1.156c33.158,10.987 66.121,21.975 99.277,32.963c0.964,0.193 1.735,0.578 3.277,1.157c-80.77,52.819 -160.963,105.638 -241.734,157.493c-0.193,-0.385 -0.385,-0.578 -0.578,-0.771Z" style="fill:#121e3e;fill-rule:nonzero;"/><path d="M387.47,370.867l-244.819,0c0,-0.192 -0.193,-0.192 -0.193,-0.385c3.085,-1.542 5.976,-3.085 9.06,-4.627c26.024,-12.722 52.241,-25.445 78.265,-38.168c27.952,-13.687 55.711,-27.181 83.663,-40.868c1.349,-0.771 2.313,-0.578 3.277,0.579c22.747,26.987 45.686,53.783 68.626,80.771c0.579,0.771 1.157,1.542 2.121,2.698Z" style="fill:#121e3e;fill-rule:nonzero;"/><path d="M401.542,425.807c7.133,1.157 9.253,5.976 9.446,11.566c0.193,3.277 -0.193,6.747 -0.578,10.024c-0.772,4.82 -4.049,7.904 -8.868,8.289c-5.783,0.579 -11.566,0.964 -17.349,0.964c-15.422,0.193 -31.037,0 -46.458,0c-2.313,0 -2.892,-0.578 -2.892,-2.891l0,-55.519c0,-2.12 0.579,-2.698 2.699,-2.698l40.675,0c6.747,0 13.494,0.192 20.241,0.771c5.783,0.578 9.06,3.662 10.024,9.445c0.385,2.699 0.385,5.398 0.385,8.097c-0.192,5.398 -1.542,9.639 -7.325,11.952Zm-29.494,6.554c-5.783,0 -11.374,0 -17.157,-0.192c-1.349,0 -2.12,0.385 -2.12,1.927c0.193,1.928 0,3.663 0,5.591c0,1.349 0.578,1.927 1.927,1.927c11.181,0 22.555,0 33.736,-0.192c2.699,0 4.241,-1.735 4.048,-4.82c0,-2.891 -1.349,-4.241 -4.241,-4.241l-16.193,0Zm-1.157,-21.397l0,-0.193l-11.373,0c-7.133,0 -7.133,0 -6.554,7.326c0,1.156 0.385,1.734 1.542,1.734c10.602,0 21.397,-0.192 32,-0.385c2.892,0 3.856,-1.349 3.856,-4.434c0,-2.892 -0.964,-3.856 -3.856,-4.048c-5.205,-0.193 -10.41,0 -15.615,0Z" style="fill:#121e3e;fill-rule:nonzero;"/><path d="M273.735,394.771c8.867,0.385 17.734,0.771 26.602,1.349c8.29,0.578 12.723,4.434 14.073,12.723c1.928,11.76 1.928,23.518 0,35.277c-1.35,8.289 -6.169,12.145 -14.458,12.916c-17.35,1.349 -34.699,1.349 -52.241,0c-9.06,-0.771 -13.687,-5.59 -14.65,-14.843c-1.157,-10.603 -1.157,-21.205 0,-31.808c0.963,-8.675 5.59,-13.494 14.264,-14.072c8.675,-0.771 17.542,-1.157 26.41,-1.542Zm0.192,16.771l0,-0.386c-5.59,0.193 -11.18,0.386 -16.578,0.771c-3.469,0.193 -5.397,2.121 -5.59,5.398c-0.385,5.591 -0.578,11.181 -0.385,16.771c0.192,4.048 2.698,6.554 6.554,6.554c10.409,0.193 21.011,0.193 31.421,0c4.434,0 6.747,-2.698 6.94,-7.132c0.193,-4.626 0.193,-9.253 0,-13.879c-0.193,-5.976 -2.506,-8.097 -8.482,-8.29c-4.627,0.193 -9.253,0.193 -13.88,0.193Z" style="fill:#121e3e;fill-rule:nonzero;"/><path d="M512,427.349c-0.386,4.82 -0.579,10.603 -1.35,16.193c-1.156,8.289 -5.783,12.53 -14.457,13.301c-17.35,1.349 -34.892,1.349 -52.242,0c-9.253,-0.771 -13.879,-5.397 -15.036,-15.421c-1.156,-10.795 -1.156,-21.591 0.386,-32.193c1.156,-7.904 5.976,-12.338 13.879,-13.109c15.422,-1.542 30.844,-1.157 46.458,-0.578c2.892,0.192 5.783,0.192 8.482,0.771c8.096,1.349 12.145,6.168 12.916,15.036c0.578,5.012 0.771,10.025 0.964,16Zm-41.638,13.687l0,0.578c5.012,-0.192 10.216,-0.385 15.228,-0.771c4.241,-0.193 6.362,-2.12 6.94,-6.361c0.385,-3.084 0.385,-6.361 0.385,-9.446c-0.192,-2.891 -0.385,-5.976 -0.963,-8.867c-0.386,-2.314 -2.121,-3.856 -4.627,-4.242c-3.084,-0.385 -6.361,-0.578 -9.445,-0.578c-8.097,0 -16.194,0.193 -24.29,0.578c-3.085,0.193 -5.012,1.736 -5.205,4.82c-0.386,5.59 -0.771,11.181 -0.578,16.771c0.192,5.012 2.506,7.132 7.71,7.325c4.82,0.386 9.832,0.193 14.845,0.193Z" style="fill:#121e3e;fill-rule:nonzero;"/><path d="M205.301,433.133c4.048,0.963 7.518,2.506 8.097,6.554c0.578,5.204 0.578,10.602 0.771,15.807c0,0.385 -0.964,1.156 -1.543,1.349l-15.421,0c-1.35,0 -1.543,-0.771 -1.543,-1.928c0,-2.891 -0.192,-5.783 -0.385,-8.481c-0.386,-3.278 -1.928,-4.627 -5.205,-4.627c-9.831,0 -19.662,0 -29.686,-0.193c-1.542,0 -2.121,0.579 -2.121,2.121l0,10.795c0,1.735 -0.578,2.313 -2.313,2.313l-14.65,0c-1.542,0 -2.121,-0.578 -2.121,-2.12l0,-56.868c0,-1.542 0.579,-2.121 2.121,-1.928c15.228,0 30.457,0.193 45.493,0.193l11.759,0c10.602,0 14.651,3.47 15.808,14.072c0.578,4.627 0.192,9.639 -0.386,14.266c-0.386,4.626 -3.663,7.325 -8.675,8.675Zm-47.228,-7.326l30.071,0c6.362,0 7.518,-1.349 7.326,-7.71l0,-0.386c-0.193,-4.82 -1.35,-5.976 -6.169,-5.976c-9.638,0 -19.084,0 -28.722,-0.193l-2.506,0l0,14.265Z" style="fill:#121e3e;fill-rule:nonzero;"/><path d="M83.47,456.65c-0.578,0 -1.349,0.193 -1.927,0.193l-23.904,0c-1.156,0 -2.506,-0.578 -3.47,-1.349c-7.711,-6.362 -15.422,-12.916 -22.94,-19.47c-1.735,-1.542 -3.663,-2.313 -5.976,-2.12c-6.361,0.192 -6.361,0 -6.361,6.361l0,14.265c0,1.542 -0.386,2.313 -2.121,2.313l-14.843,0c-1.349,0 -1.928,-0.386 -1.928,-1.928l0,-57.831c0,-0.386 0,-0.578 0.193,-1.157c0.964,0 1.735,-0.193 2.699,-0.193l12.915,0c2.892,0 2.892,0 2.892,3.085l0,16.579c0,1.735 0.386,2.313 2.12,2.313c7.518,0 7.326,0 12.916,-5.012c5.59,-5.398 11.374,-10.603 17.157,-16.001c0.771,-0.578 1.735,-1.156 2.506,-1.156l25.831,0c0.193,0 0.579,0.192 1.542,0.192c-11.758,10.024 -23.132,19.856 -34.699,29.881c12.531,10.216 24.868,20.24 37.398,30.264c0.193,0.386 0,0.578 0,0.771Z" style="fill:#121e3e;fill-rule:nonzero;"/><path d="M98.506,426.386l0,-27.76c0,-2.12 0.578,-2.892 2.699,-2.699c5.012,0.193 9.831,0 14.843,0c1.735,0 2.506,0.386 2.506,2.313l0,56.483c0,1.734 -0.578,2.313 -2.313,2.313c-5.012,0 -9.831,-0.193 -14.843,0c-2.121,0 -2.892,-0.579 -2.892,-2.892c0.193,-9.253 0,-18.505 0,-27.758Z" style="fill:#121e3e;fill-rule:nonzero;"/></g></svg>